# xmcd CD database file
#
# Track frame offsets:
#	150
#	12578
#	33777
#	55399
#	72409
#	96882
#	117177
#	132369
#	167572
#	181856
#	201122
#	224860
#	241741
#	258661
#
# Disc length: 3648 seconds
#
# Revision: 0
# Processed by: cddbd v1.5.2PL0 Copyright (c) Steve Scherf et al.
# Submitted via: CDex 1.51
#
DISCID=cd0e3e0e
DTITLE=Various Artist - La route des tubes
DYEAR=1900
DGENRE=Jazz
TTITLE0=Louis Armstrong - Cabaret
TTITLE1=Count Basie and The Kansas City 7 - Oh Lady Be Good
TTITLE2=Art Blakey and Jazz Messengers - Gee Baby Ain't I Good To You
TTITLE3=John Coltrane Quartet - What's New
TTITLE4=Milt Jackson - Au Private
TTITLE5=J.J. Johnson and Kai Winding - Blue Monk
TTITLE6=Billy Holiday - Lover Man (Where Can You Be ?)
TTITLE7=Duke Ellington - Blues For New Orleans
TTITLE8=Louis Armstrong - Down By The Riverside
TTITLE9=Duke Ellington and John Coltrade - In A Sentimental Mood
TTITLE10=Miles Davis - Tutu
TTITLE11=Keith Jarret - Margot
TTITLE12=Sonny Rollins - Blue Room
TTITLE13=MC Coy - Tyner
EXTD=
EXTT0=
EXTT1=
EXTT2=
EXTT3=
EXTT4=
EXTT5=
EXTT6=
EXTT7=
EXTT8=
EXTT9=
EXTT10=
EXTT11=
EXTT12=
EXTT13=
PLAYORDER=
